<svg xmlns="http://www.w3.org/2000/svg" viewBox="0 0 45.781 52.561" height="31" width="27"><defs><linearGradient id="A" x1="31.732" y1="39.761" x2="34.448" y2="-.029" gradientUnits="userSpaceOnUse"><stop offset="0" stop-color="#6ded08"/><stop offset="1" stop-color="#b4fe7b" stop-opacity=".824"/></linearGradient><linearGradient id="B" x1="11.696" y1="52.539" x2="11.83" y2="12.687" gradientUnits="userSpaceOnUse"><stop offset="0" stop-color="#060606"/><stop offset="1" stop-color="#585858" stop-opacity=".824"/></linearGradient></defs><path d="M43.702 5.07c2.65 4.1 2.27 8.85 1.55 13.45-1.72 8.75-6.92 15.52-13.52 21.24-2.44-.65-4.9-1.2-7.36-1.7 4.4-4.68 8-9.87 9.55-16.2-2.8-.67-5.33-1.53-7.34-3.7-4.6-3.9-4.05-12.1.4-15.9 4.87-3.74 13.62-2.93 16.7 2.8z" fill="url(#A)"/><path d="M15.202 13.55c4.94 1.24 7.6 6.63 7.2 11.42-1.08 5.12-5.47 8.98-10.66 9.58 1.4 6.4 5 11.63 9.43 16.32-2.32.47-4.6 1.02-6.86 1.7-6.64-5.28-11.82-12.06-13.6-20.5-1.06-5.16-1.34-10.62 2.07-15 2.85-3.97 7.96-4.55 12.42-3.5z" fill="url(#B)"/></svg>